<svg width="280" height="80" viewBox="0 0 280 80" xmlns="http://www.w3.org/2000/svg">
  <defs>
    <linearGradient id="skyGradient" x1="0%" y1="0%" x2="0%" y2="100%">
      <stop offset="0%" style="stop-color:#a8b8c8;stop-opacity:1" />
      <stop offset="100%" style="stop-color:#7a8a9a;stop-opacity:1" />
    </linearGradient>
  </defs>
  
  <!-- Sky background -->
  <rect width="280" height="80" fill="url(#skyGradient)"/>
  
  <!-- Back layer buildings (lightest) -->
  <rect x="10" y="40" width="8" height="40" fill="#6b7b8b"/>
  <rect x="25" y="10" width="6" height="70" fill="#6b7b8b"/>
  <rect x="40" y="45" width="12" height="35" fill="#6b7b8b"/>
  <rect x="60" y="5" width="8" height="75" fill="#6b7b8b"/>
  <rect x="75" y="50" width="10" height="30" fill="#6b7b8b"/>
  <rect x="95" y="15" width="12" height="65" fill="#6b7b8b"/>
  <rect x="115" y="35" width="14" height="45" fill="#6b7b8b"/>
  <rect x="140" y="20" width="9" height="60" fill="#6b7b8b"/>
  <rect x="160" y="8" width="11" height="72" fill="#6b7b8b"/>
  <rect x="180" y="45" width="7" height="35" fill="#6b7b8b"/>
  <rect x="195" y="12" width="10" height="68" fill="#6b7b8b"/>
  <rect x="215" y="38" width="8" height="42" fill="#6b7b8b"/>
  <rect x="235" y="25" width="12" height="55" fill="#6b7b8b"/>
  <rect x="255" y="42" width="6" height="38" fill="#6b7b8b"/>
  <rect x="270" y="30" width="10" height="50" fill="#6b7b8b"/>
  
  <!-- Back layer windows -->
  <rect x="12" y="44" width="1" height="2" fill="#8b9bab"/>
  <rect x="15" y="44" width="1" height="2" fill="#8b9bab"/>
  <rect x="12" y="50" width="1" height="2" fill="#8b9bab"/>
  <rect x="27" y="15" width="1" height="2" fill="#8b9bab"/>
  <rect x="29" y="15" width="1" height="2" fill="#8b9bab"/>
  <rect x="27" y="25" width="1" height="2" fill="#8b9bab"/>
  <rect x="29" y="25" width="1" height="2" fill="#8b9bab"/>
  <rect x="62" y="12" width="1" height="2" fill="#8b9bab"/>
  <rect x="65" y="12" width="1" height="2" fill="#8b9bab"/>
  <rect x="62" y="22" width="1" height="2" fill="#8b9bab"/>
  <rect x="65" y="22" width="1" height="2" fill="#8b9bab"/>
  <rect x="97" y="20" width="1" height="2" fill="#8b9bab"/>
  <rect x="100" y="20" width="1" height="2" fill="#8b9bab"/>
  <rect x="103" y="20" width="1" height="2" fill="#8b9bab"/>
  <rect x="162" y="15" width="1" height="2" fill="#8b9bab"/>
  <rect x="165" y="15" width="1" height="2" fill="#8b9bab"/>
  <rect x="168" y="15" width="1" height="2" fill="#8b9bab"/>
  <rect x="197" y="18" width="1" height="2" fill="#8b9bab"/>
  <rect x="200" y="18" width="1" height="2" fill="#8b9bab"/>
  <rect x="202" y="18" width="1" height="2" fill="#8b9bab"/>
  
  <!-- Middle layer buildings (medium) -->
  <rect x="5" y="45" width="14" height="35" fill="#4a5a6a"/>
  <rect x="30" y="18" width="16" height="62" fill="#4a5a6a"/>
  <rect x="55" y="35" width="18" height="45" fill="#4a5a6a"/>
  <rect x="85" y="12" width="12" height="68" fill="#4a5a6a"/>
  <rect x="105" y="40" width="20" height="40" fill="#4a5a6a"/>
  <rect x="135" y="8" width="14" height="72" fill="#4a5a6a"/>
  <rect x="155" y="48" width="16" height="32" fill="#4a5a6a"/>
  <rect x="175" y="22" width="13" height="58" fill="#4a5a6a"/>
  <rect x="200" y="52" width="10" height="28" fill="#4a5a6a"/>
  <rect x="220" y="6" width="17" height="74" fill="#4a5a6a"/>
  <rect x="245" y="30" width="11" height="50" fill="#4a5a6a"/>
  <rect x="265" y="55" width="13" height="25" fill="#4a5a6a"/>
  
  <!-- Middle layer windows -->
  <rect x="7" y="48" width="1" height="2" fill="#7a8a9a"/>
  <rect x="10" y="48" width="1" height="2" fill="#7a8a9a"/>
  <rect x="13" y="48" width="1" height="2" fill="#7a8a9a"/>
  <rect x="32" y="25" width="1" height="2" fill="#7a8a9a"/>
  <rect x="35" y="25" width="1" height="2" fill="#7a8a9a"/>
  <rect x="38" y="25" width="1" height="2" fill="#7a8a9a"/>
  <rect x="41" y="25" width="1" height="2" fill="#7a8a9a"/>
  <rect x="32" y="35" width="1" height="2" fill="#7a8a9a"/>
  <rect x="35" y="35" width="1" height="2" fill="#7a8a9a"/>
  <rect x="87" y="18" width="1" height="2" fill="#7a8a9a"/>
  <rect x="90" y="18" width="1" height="2" fill="#7a8a9a"/>
  <rect x="93" y="18" width="1" height="2" fill="#7a8a9a"/>
  <rect x="87" y="28" width="1" height="2" fill="#7a8a9a"/>
  <rect x="90" y="28" width="1" height="2" fill="#7a8a9a"/>
  <rect x="137" y="15" width="1" height="2" fill="#7a8a9a"/>
  <rect x="140" y="15" width="1" height="2" fill="#7a8a9a"/>
  <rect x="143" y="15" width="1" height="2" fill="#7a8a9a"/>
  <rect x="146" y="15" width="1" height="2" fill="#7a8a9a"/>
  <rect x="137" y="25" width="1" height="2" fill="#7a8a9a"/>
  <rect x="140" y="25" width="1" height="2" fill="#7a8a9a"/>
  <rect x="177" y="28" width="1" height="2" fill="#7a8a9a"/>
  <rect x="180" y="28" width="1" height="2" fill="#7a8a9a"/>
  <rect x="183" y="28" width="1" height="2" fill="#7a8a9a"/>
  <rect x="222" y="12" width="1" height="2" fill="#7a8a9a"/>
  <rect x="225" y="12" width="1" height="2" fill="#7a8a9a"/>
  <rect x="228" y="12" width="1" height="2" fill="#7a8a9a"/>
  <rect x="231" y="12" width="1" height="2" fill="#7a8a9a"/>
  <rect x="234" y="12" width="1" height="2" fill="#7a8a9a"/>
  <rect x="222" y="22" width="1" height="2" fill="#7a8a9a"/>
  <rect x="225" y="22" width="1" height="2" fill="#7a8a9a"/>
  <rect x="228" y="22" width="1" height="2" fill="#7a8a9a"/>
  
  <!-- Front layer buildings (darkest) -->
  <rect x="0" y="58" width="18" height="22" fill="#2a3a4a"/>
  <rect x="22" y="15" width="22" height="65" fill="#2a3a4a"/>
  <rect x="50" y="50" width="14" height="30" fill="#2a3a4a"/>
  <rect x="70" y="25" width="26" height="55" fill="#2a3a4a"/>
  <rect x="102" y="45" width="16" height="35" fill="#2a3a4a"/>
  <rect x="125" y="5" width="20" height="75" fill="#2a3a4a"/>
  <rect x="150" y="60" width="12" height="20" fill="#2a3a4a"/>
  <rect x="168" y="20" width="18" height="60" fill="#2a3a4a"/>
  <rect x="192" y="35" width="14" height="45" fill="#2a3a4a"/>
  <rect x="212" y="55" width="16" height="25" fill="#2a3a4a"/>
  <rect x="235" y="10" width="18" height="70" fill="#2a3a4a"/>
  <rect x="260" y="62" width="20" height="18" fill="#2a3a4a"/>
  
  <!-- Front layer windows -->
  <rect x="2" y="62" width="1" height="2" fill="#5a6a7a"/>
  <rect x="5" y="62" width="1" height="2" fill="#5a6a7a"/>
  <rect x="8" y="62" width="1" height="2" fill="#5a6a7a"/>
  <rect x="24" y="22" width="1" height="2" fill="#5a6a7a"/>
  <rect x="27" y="22" width="1" height="2" fill="#5a6a7a"/>
  <rect x="30" y="22" width="1" height="2" fill="#5a6a7a"/>
  <rect x="33" y="22" width="1" height="2" fill="#5a6a7a"/>
  <rect x="36" y="22" width="1" height="2" fill="#5a6a7a"/>
  <rect x="39" y="22" width="1" height="2" fill="#5a6a7a"/>
  <rect x="42" y="22" width="1" height="2" fill="#5a6a7a"/>
  <rect x="24" y="32" width="1" height="2" fill="#5a6a7a"/>
  <rect x="27" y="32" width="1" height="2" fill="#5a6a7a"/>
  <rect x="30" y="32" width="1" height="2" fill="#5a6a7a"/>
  <rect x="33" y="32" width="1" height="2" fill="#5a6a7a"/>
  <rect x="36" y="32" width="1" height="2" fill="#5a6a7a"/>
  <rect x="39" y="32" width="1" height="2" fill="#5a6a7a"/>
  <rect x="24" y="42" width="1" height="2" fill="#5a6a7a"/>
  <rect x="27" y="42" width="1" height="2" fill="#5a6a7a"/>
  <rect x="30" y="42" width="1" height="2" fill="#5a6a7a"/>
  <rect x="33" y="42" width="1" height="2" fill="#5a6a7a"/>
  <rect x="72" y="32" width="1" height="2" fill="#5a6a7a"/>
  <rect x="75" y="32" width="1" height="2" fill="#5a6a7a"/>
  <rect x="78" y="32" width="1" height="2" fill="#5a6a7a"/>
  <rect x="81" y="32" width="1" height="2" fill="#5a6a7a"/>
  <rect x="84" y="32" width="1" height="2" fill="#5a6a7a"/>
  <rect x="87" y="32" width="1" height="2" fill="#5a6a7a"/>
  <rect x="90" y="32" width="1" height="2" fill="#5a6a7a"/>
  <rect x="93" y="32" width="1" height="2" fill="#5a6a7a"/>
  <rect x="72" y="42" width="1" height="2" fill="#5a6a7a"/>
  <rect x="75" y="42" width="1" height="2" fill="#5a6a7a"/>
  <rect x="78" y="42" width="1" height="2" fill="#5a6a7a"/>
  <rect x="127" y="12" width="1" height="2" fill="#5a6a7a"/>
  <rect x="130" y="12" width="1" height="2" fill="#5a6a7a"/>
  <rect x="133" y="12" width="1" height="2" fill="#5a6a7a"/>
  <rect x="136" y="12" width="1" height="2" fill="#5a6a7a"/>
  <rect x="139" y="12" width="1" height="2" fill="#5a6a7a"/>
  <rect x="142" y="12" width="1" height="2" fill="#5a6a7a"/>
  <rect x="127" y="22" width="1" height="2" fill="#5a6a7a"/>
  <rect x="130" y="22" width="1" height="2" fill="#5a6a7a"/>
  <rect x="133" y="22" width="1" height="2" fill="#5a6a7a"/>
  <rect x="136" y="22" width="1" height="2" fill="#5a6a7a"/>
  <rect x="139" y="22" width="1" height="2" fill="#5a6a7a"/>
  <rect x="142" y="22" width="1" height="2" fill="#5a6a7a"/>
  <rect x="127" y="32" width="1" height="2" fill="#5a6a7a"/>
  <rect x="130" y="32" width="1" height="2" fill="#5a6a7a"/>
  <rect x="133" y="32" width="1" height="2" fill="#5a6a7a"/>
  <rect x="136" y="32" width="1" height="2" fill="#5a6a7a"/>
  <rect x="170" y="28" width="1" height="2" fill="#5a6a7a"/>
  <rect x="173" y="28" width="1" height="2" fill="#5a6a7a"/>
  <rect x="176" y="28" width="1" height="2" fill="#5a6a7a"/>
  <rect x="179" y="28" width="1" height="2" fill="#5a6a7a"/>
  <rect x="182" y="28" width="1" height="2" fill="#5a6a7a"/>
  <rect x="170" y="38" width="1" height="2" fill="#5a6a7a"/>
  <rect x="173" y="38" width="1" height="2" fill="#5a6a7a"/>
  <rect x="176" y="38" width="1" height="2" fill="#5a6a7a"/>
  <rect x="237" y="18" width="1" height="2" fill="#5a6a7a"/>
  <rect x="240" y="18" width="1" height="2" fill="#5a6a7a"/>
  <rect x="243" y="18" width="1" height="2" fill="#5a6a7a"/>
  <rect x="246" y="18" width="1" height="2" fill="#5a6a7a"/>
  <rect x="249" y="18" width="1" height="2" fill="#5a6a7a"/>
  <rect x="237" y="28" width="1" height="2" fill="#5a6a7a"/>
  <rect x="240" y="28" width="1" height="2" fill="#5a6a7a"/>
  <rect x="243" y="28" width="1" height="2" fill="#5a6a7a"/>
  <rect x="246" y="28" width="1" height="2" fill="#5a6a7a"/>
  <rect x="237" y="38" width="1" height="2" fill="#5a6a7a"/>
  <rect x="240" y="38" width="1" height="2" fill="#5a6a7a"/>
  <rect x="243" y="38" width="1" height="2" fill="#5a6a7a"/>
  
  <!-- Small antenna/spire details -->
  <rect x="16" y="38" width="1" height="8" fill="#1a2a3a"/>
  <rect x="33" y="26" width="1" height="10" fill="#1a2a3a"/>
  <rect x="82" y="24" width="1" height="12" fill="#1a2a3a"/>
  <rect x="135" y="20" width="1" height="14" fill="#1a2a3a"/>
  <rect x="176" y="28" width="1" height="10" fill="#1a2a3a"/>
  <rect x="244" y="26" width="1" height="12" fill="#1a2a3a"/>
</svg>